:SAMPLES-PER-SECOND 30
:FULLY-SPECIFIED
:DEGREES
16
root  -26.8828 38.2371 -4.6186 -166.399 87.7487 -161.235
RightUpLeg  -36.8195 0.318624 0.292975
RightLeg  79.7548 9.91911 -5.6846
RightFoot  -6.53731 -0.00823198 0.128728
RightToes  -6.98493e-010 -1.59028e-015 9.93923e-017
Spine  4.13936 -5.01725 -6.61901
Spine1  13.0077 -8.11609 5.39901
HEad  -8.01495 7.29417 0.638974
LeftShoulder1  9.93923e-017 0 1.22299e-017
LeftArm  6.36581 15.5874 -78.31
LeftForeArm  -39.0985 -60.9967 43.8057
LeftHand  1.05553 7.52506 -1.34625
RightShoulder  1.98785e-016 -4.96962e-017 1.55301e-017
RightArm  47.2616 -61.993 57.8271
RightForeArm  -29.3115 17.7643 -4.41332
RightHand  1.43791 -12.537 -5.09345
LeftUpLeg  -6.33213 -11.989 -7.28573
LeftLeg  32.5498 -6.77625 2.48508
LeftFoot  -12.4731 -0.0767665 5.47376
LeftToes  -1.90082e-010 4.30011e-012 -7.87804e-012
17
root  -23.7158 39.1457 -4.46363 -153.025 84.9384 -148.852
RightUpLeg  -36.579 -2.77907 3.00813
RightLeg  56.1712 5.89967 -7.8375
RightFoot  -6.63463 -0.0396574 0.69555
RightToes  -6.98493e-010 -1.59028e-015 9.93923e-017
Spine  1.78317 -6.43439 -4.62069
Spine1  12.5317 -9.28409 6.70988
HEad  -7.36387 6.90922 0.714646
LeftShoulder1  9.93923e-017 0 1.22299e-017
LeftArm  5.82514 9.70971 -78.5604
LeftForeArm  -48.1012 -67.0962 57.1777
LeftHand  1.10989 7.88363 0.244514
RightShoulder  1.98785e-016 -4.96962e-017 1.55301e-017
RightArm  61.8675 -68.4382 37.6992
RightForeArm  -34.7884 18.7416 -7.6083
RightHand  1.39452 -12.4747 -4.45602
LeftUpLeg  0.506306 -12.8176 -5.19544
LeftLeg  26.3573 -7.25826 1.31776
LeftFoot  -8.74861 -0.127026 2.61628
LeftToes  -1.90082e-010 4.30011e-012 -7.87804e-012
18
root  -20.6094 39.6871 -4.22463 -153.932 83.4465 -151.366
RightUpLeg  -34.2845 -4.50594 4.69678
RightLeg  32.1844 5.50677 -3.28205
RightFoot  -4.52675 -0.157586 2.03993
RightToes  -6.98493e-010 -1.59028e-015 9.93923e-017
Spine  -1.65528 -7.4288 -4.13795
Spine1  12.7756 -10.2098 8.18477
HEad  -5.50319 6.58067 0.818358
LeftShoulder1  9.93923e-017 0 1.22299e-017
LeftArm  4.26697 6.87577 -78.8511
LeftForeArm  -65.3164 -70.9744 72.9826
LeftHand  1.12602 7.96182 0.874307
RightShoulder  1.98785e-016 -4.96962e-017 1.55301e-017
RightArm  79.1251 -70.814 14.6702
RightForeArm  -37.2226 18.7403 -7.67269
RightHand  1.31209 -12.1672 -3.66365
LeftUpLeg  6.13954 -10.0043 -2.81359
LeftLeg  19.9339 -10.8807 -0.731572
LeftFoot  -2.15924 -0.105084 0.940698
LeftToes  -1.90082e-010 4.30011e-012 -7.87804e-012
19
root  -17.5516 39.7959 -3.90182 -163.725 82.0929 -162.129
RightUpLeg  -30.0063 -3.05957 3.2627
RightLeg  10.3448 7.32254 0.60021
RightFoot  -3.30916 -0.396264 4.71868
RightToes  -6.98493e-010 -1.59028e-015 9.93923e-017
Spine  -4.60657 -8.36576 -5.66209
Spine1  13.7499 -11.2521 9.31551
HEad  -4.80214 6.18504 0.98291
LeftShoulder1  9.93923e-017 0 1.22299e-017
LeftArm  2.92069 5.02179 -78.6483
LeftForeArm  -82.0579 -72.658 87.6381
LeftHand  1.21343 8.67519 -0.472571
RightShoulder  1.98785e-016 -4.96962e-017 1.55301e-017
RightArm  90.7764 -70.684 -2.44105
RightForeArm  -31.7593 17.9423 -5.5453
RightHand  1.29791 -12.0951 -3.56139
LeftUpLeg  10.9075 -6.35048 -1.09968
LeftLeg  16.2881 -15.9273 -1.93474
LeftFoot  3.8336 0.0197511 -0.0579639
LeftToes  -1.90082e-010 4.30011e-012 -7.87804e-012
20
root  -14.4573 39.4414 -3.52841 -175.346 79.9219 -174.051
RightUpLeg  -26.2916 2.7605 -1.60077
RightLeg  -2.72095 0.91837 1.1288
RightFoot  -4.94106 -0.445844 6.14577
RightToes  -6.98493e-010 -1.59028e-015 9.93923e-017
Spine  -6.7037 -9.37479 -8.12551
Spine1  14.7058 -12.2374 10.0095
HEad  -4.95482 5.35171 1.50694
LeftShoulder1  9.93923e-017 0 1.22299e-017
LeftArm  2.3226 3.21603 -78.67
LeftForeArm  -86.1221 -72.9004 92.836
LeftHand  1.26312 9.20112 -1.82009
RightShoulder  1.98785e-016 -4.96962e-017 1.55301e-017
RightArm  101.397 -70.5335 -14.5433
RightForeArm  -28.678 17.6435 -4.97374
RightHand  1.35709 -12.3523 -4.06708
LeftUpLeg  14.6106 -6.19868 0.0953464
LeftLeg  16.6528 -18.6871 -3.22127
LeftFoot  7.66462 0.413527 -2.09546
LeftToes  -1.90082e-010 4.30011e-012 -7.87804e-012
21
root  -11.4621 38.6744 -3.15881 -178.241 77.2822 -177.352
RightUpLeg  -26.4685 2.17994 -1.98531
RightLeg  -1.86998 -3.5552 -0.249051
RightFoot  -5.24116 -0.280445 4.18524
RightToes  -6.98493e-010 -1.59028e-015 9.93923e-017
Spine  -7.9591 -10.1968 -9.23733
Spine1  15.2218 -13.0443 10.8901
HEad  -5.18802 4.08159 2.00342
LeftShoulder1  9.93923e-017 0 1.22299e-017
LeftArm  2.02176 2.6475 -79.4163
LeftForeArm  -81.0001 -72.6734 90.0947
LeftHand  1.21413 8.82973 -1.88339
RightShoulder  1.98785e-016 -4.96962e-017 1.55301e-017
RightArm  110.914 -70.6355 -22.9676
RightForeArm  -30.7277 17.9844 -5.64174
RightHand  1.36938 -12.4196 -4.13103
LeftUpLeg  16.3875 -7.03526 2.74361
LeftLeg  19.985 -22.2066 -5.75374
LeftFoot  11.4891 1.08685 -4.76335
LeftToes  -1.90082e-010 4.30011e-012 -7.87804e-012
22
root  -8.59651 37.5606 -2.82933 -173.373 75.4202 -172.441
RightUpLeg  -29.2448 1.04282 -0.199257
RightLeg  8.56466 -6.15944 -2.25726
RightFoot  0.588808 -0.0205706 0.415842
RightToes  -6.98493e-010 -1.59028e-015 9.93923e-017
Spine  -7.80945 -10.2766 -7.20675
Spine1  15.0255 -13.0117 10.877
HEad  -6.89063 2.87794 1.85004
LeftShoulder1  9.93923e-017 0 1.22299e-017
LeftArm  1.52683 3.74078 -80.5986
LeftForeArm  -74.7191 -72.2506 84.5507
LeftHand  1.18027 8.52248 -1.54768
RightShoulder  1.98785e-016 -4.96962e-017 1.55301e-017
RightArm  107.993 -71.7747 -21.8653
RightForeArm  -28.1017 17.2937 -4.05193
RightHand  1.30501 -12.1663 -3.52548
LeftUpLeg  16.3989 -6.32055 7.87315
LeftLeg  26.9703 -27.0053 -9.71396
LeftFoot  16.5531 1.93142 -7.01068
LeftToes  -1.90082e-010 4.30011e-012 -7.87804e-012
23
root  -6.00079 36.4637 -2.55587 -162.712 75.1653 -160.455
RightUpLeg  -31.3334 -0.578002 4.94575
RightLeg  19.507 -2.03642 -4.08848
RightFoot  8.62566 0.718718 -3.80347
RightToes  -6.98493e-010 -1.59028e-015 9.93923e-017
Spine  -5.61879 -9.20832 -1.94154
Spine1  14.6234 -11.6451 9.22223
HEad  -10.9378 2.44466 1.29768
LeftShoulder1  9.93923e-017 0 1.22299e-017
LeftArm  0.845696 6.00585 -81.9878
LeftForeArm  -64.7461 -71.1248 74.6187
LeftHand  1.20029 8.67126 -1.5137
RightShoulder  1.98785e-016 -4.96962e-017 1.55301e-017
RightArm  80.2968 -73.7736 -0.48316
RightForeArm  -17.0239 14.6004 0.174578
RightHand  1.2366 -11.8832 -2.857
LeftUpLeg  15.5269 -6.32464 13.4158
LeftLeg  36.6586 -26.6386 -12.6628
LeftFoot  21.7733 2.96302 -9.12282
LeftToes  -1.90082e-010 4.30011e-012 -7.87804e-012
24
root  -3.78487 35.7714 -2.32335 -149.089 76.0914 -145.19
RightUpLeg  -32.2952 0.608403 9.95575
RightLeg  28.9837 1.45852 -5.01985
RightFoot  8.3512 1.43876 -7.6968
RightToes  -6.98493e-010 -1.59028e-015 9.93923e-017
Spine  -2.50383 -7.74963 2.63931
Spine1  14.7874 -9.96364 8.25199
HEad  -14.8558 3.18335 1.17708
LeftShoulder1  9.93923e-017 0 1.22299e-017
LeftArm  0.196473 9.84806 -83.6162
LeftForeArm  -47.483 -67.2391 57.376
LeftHand  1.15972 8.29349 -0.433125
RightShoulder  1.98785e-016 -4.96962e-017 1.55301e-017
RightArm  34.7783 -70.1785 37.386
RightForeArm  -6.71017 11.4551 3.18072
RightHand  1.22107 -11.7759 -2.79817
LeftUpLeg  12.943 -7.49816 16.2712
LeftLeg  46.9812 -21.2546 -11.3664
LeftFoot  23.74 3.66967 -10.6976
LeftToes  -1.90082e-010 4.30011e-012 -7.87804e-012
25
root  -1.88499 35.7451 -2.10566 -137.965 77.4926 -133.732
RightUpLeg  -31.4754 2.27868 12.7383
RightLeg  34.2889 2.01669 -5.8149
RightFoot  1.6899 1.22001 -9.24208
RightToes  -6.98493e-010 -1.59028e-015 9.93923e-017
Spine  -0.578869 -6.65186 3.05603
Spine1  15.3087 -9.13603 9.98472
HEad  -15.5535 4.6134 1.78188
LeftShoulder1  9.93923e-017 0 1.22299e-017
LeftArm  0.256582 15.5332 -85.353
LeftForeArm  -32.7016 -57.8711 39.4437
LeftHand  0.994954 7.08621 1.81395
RightShoulder  1.98785e-016 -4.96962e-017 1.55301e-017
RightArm  8.24825 -60.1777 61.0008
RightForeArm  -7.30476 12.0293 1.34099
RightHand  1.29378 -11.9356 -3.88243
LeftUpLeg  7.14476 -9.14807 15.1335
LeftLeg  57.0352 -16.5242 -8.08167
LeftFoot  21.536 3.16867 -9.79781
LeftToes  -1.90082e-010 4.30011e-012 -7.87804e-012
26
root  -0.0101123 36.2518 -1.90372 -131.892 79.4749 -128.533
RightUpLeg  -28.6004 2.81707 13.2238
RightLeg  34.2754 2.33248 -5.59251
RightFoot  -3.53335 0.675271 -8.08589
RightToes  -6.98493e-010 -1.59028e-015 9.93923e-017
Spine  -0.467528 -5.69936 1.1249
Spine1  15.0896 -8.55523 11.9085
HEad  -13.2876 5.38446 2.62266
LeftShoulder1  9.93923e-017 0 1.22299e-017
LeftArm  4.66915 21.3101 -86.718
LeftForeArm  -29.7991 -43.4643 27.0948
LeftHand  0.773354 5.74172 2.78083
RightShoulder  1.98785e-016 -4.96962e-017 1.55301e-017
RightArm  7.12364 -50.5242 74.7026
RightForeArm  -25.621 17.814 -9.38048
RightHand  1.41089 -12.03 -5.97638
LeftUpLeg  -0.724293 -10.5581 11.7885
LeftLeg  64.9506 -14.5311 -5.90551
LeftFoot  17.8303 1.92281 -6.68123
LeftToes  -1.90082e-010 4.30011e-012 -7.87804e-012
27
root  1.91387 37.0293 -1.74659 -125.246 81.7683 -122.762
RightUpLeg  -24.1199 3.31012 12.7669
RightLeg  30.8094 3.3703 -4.14306
RightFoot  -4.43375 0.573389 -7.56066
RightToes  -6.98493e-010 -1.59028e-015 9.93923e-017
Spine  -0.861664 -4.46353 1.21373
Spine1  13.9086 -6.75926 10.299
HEad  -10.8828 4.8552 3.0838
LeftShoulder1  9.93923e-017 0 1.22299e-017
LeftArm  12.3924 25.1629 -86.812
LeftForeArm  -31.1147 -27.8336 16.0596
LeftHand  0.618352 4.68896 1.81484
RightShoulder  1.98785e-016 -4.96962e-017 1.55301e-017
RightArm  11.1083 -42.7061 84.0623
RightForeArm  -40.2402 22.976 -23.2696
RightHand  1.42981 -11.66 -7.49705
LeftUpLeg  -8.23774 -11.1181 8.76177
LeftLeg  68.8778 -13.5457 -3.88921
LeftFoot  15.2331 1.19774 -4.53016
LeftToes  -1.90082e-010 4.30011e-012 -7.87804e-012
28
root  3.79072 37.833 -1.63956 -111.092 83.7875 -108.886
RightUpLeg  -18.8426 4.8031 12.3445
RightLeg  26.5447 4.00787 -3.00906
RightFoot  -4.55907 0.617479 -8.2622
RightToes  -6.98493e-010 -1.59028e-015 9.93923e-017
Spine  -0.492821 -3.00397 4.01331
Spine1  12.445 -3.91121 5.46085
HEad  -10.1594 3.83165 3.22016
LeftShoulder1  9.93923e-017 0 1.22299e-017
LeftArm  3.87721 27.6058 -84.4074
LeftForeArm  -13.264 -14.5461 -1.05248
LeftHand  0.641639 4.55611 -0.235612
RightShoulder  1.98785e-016 -4.96962e-017 1.55301e-017
RightArm  3.24634 -34.8491 88.9696
RightForeArm  -32.0024 30.4145 -27.887
RightHand  1.40685 -11.3814 -7.98994
LeftUpLeg  -14.5277 -10.558 6.874
LeftLeg  68.9567 -12.3586 -0.406279
LeftFoot  13.7302 0.928268 -3.67546
LeftToes  -1.90082e-010 4.30011e-012 -7.87804e-012
